<svg id="top_bar" data-name="top bar" xmlns="http://www.w3.org/2000/svg" width="28" height="28" viewBox="0 0 28 28"><defs><style type="text/css">.cls-1{fill:#007ac3;}</style></defs><title>icon-blue</title><path class="cls-1" d="M335,19v8h-8V19h8m2-2H325V29h12V17h0Z" transform="translate(-325 -17)"/><path class="cls-1" d="M351,19v8h-8V19h8m2-2H341V29h12V17h0Z" transform="translate(-325 -17)"/><path class="cls-1" d="M335,35v8h-8V35h8m2-2H325V45h12V33h0Z" transform="translate(-325 -17)"/><path class="cls-1" d="M351,35v8h-8V35h8m2-2H341V45h12V33h0Z" transform="translate(-325 -17)"/></svg>