<svg id="graphic" xmlns="http://www.w3.org/2000/svg" xmlns:xlink="http://www.w3.org/1999/xlink" width="177.13" height="180.04" viewBox="0 0 177.13 180.04"><defs><style type="text/css">.cls-1,.cls-6{fill:none;}.cls-2{clip-path:url(#clip-path);}.cls-3{fill:#97d171;}.cls-4,.cls-8{fill:#fff;}.cls-5{fill:#95bfd1;}.cls-6{stroke:#97d171;}.cls-6,.cls-8{stroke-miterlimit:10;}.cls-7{fill:#ed9d9d;}.cls-8{stroke:#95bfd1;}</style><clipPath id="clip-path" transform="translate(-98.93 -419.13)"><circle class="cls-1" cx="189.09" cy="512.42" r="53.38"/></clipPath></defs><title>intro-img</title><g id="icon"><g class="cls-2"><g id="Layer3_0_FILL" data-name="Layer3 0 FILL"><path class="cls-3" d="M214.88,513.59a26.61,26.61,0,0,0,.31-4.07,26.72,26.72,0,0,0-53.45,0,26.62,26.62,0,0,0,.31,4.07l-6.52,18.66h8.21v16.28H176.1v20.81L209,569.41v-27.5q1.45-6.76,2.91-13.74Q214.8,514.28,214.88,513.59Z" transform="translate(-98.93 -419.13)"/></g><g id="Layer2_0_FILL" data-name="Layer2 0 FILL"><path class="cls-4" d="M202.43,495.09a18.92,18.92,0,0,0-13.88-5.76,19.19,19.19,0,0,0-14,5.76,19.74,19.74,0,0,0,0,27.88,19.22,19.22,0,0,0,14,5.74A19.7,19.7,0,0,0,202.43,495.09Z" transform="translate(-98.93 -419.13)"/></g><g id="Layer1_0_FILL" data-name="Layer1 0 FILL"><path class="cls-5" d="M184.85,518.27a3.23,3.23,0,0,0-.93,2.53,3.54,3.54,0,0,0,.93,2.62,4.06,4.06,0,0,0,2.69.84,3.45,3.45,0,0,0,2.53-.91,3.3,3.3,0,0,0,1-2.54,3.41,3.41,0,0,0-.93-2.53,3.48,3.48,0,0,0-2.6-.93,3.6,3.6,0,0,0-2.69.93m10.52-22.57a10.33,10.33,0,0,0-6.69-2,19,19,0,0,0-9.52,2.53l2.14,4.45a15.67,15.67,0,0,1,6.92-2,4.8,4.8,0,0,1,2.76.69,2.36,2.36,0,0,1,.91,2,4.13,4.13,0,0,1-.6,2.16,14.28,14.28,0,0,1-2.85,2.45,9.8,9.8,0,0,0-3,3.07,6.31,6.31,0,0,0-.85,3.38v1.45H190v-1.24a3.08,3.08,0,0,1,.53-1.91,10.88,10.88,0,0,1,2.38-2.24,15.38,15.38,0,0,0,3.93-3.6,7.18,7.18,0,0,0,1-3.85A6.53,6.53,0,0,0,195.38,495.7Z" transform="translate(-98.93 -419.13)"/></g></g><circle class="cls-6" cx="90.16" cy="93.29" r="53.38"/><circle class="cls-6" cx="90.16" cy="93.29" r="83.19"/></g><g id="chk_box" data-name="chk box"><rect class="cls-4" x="67.63" y="135.54" width="17" height="17" rx="1.5" ry="1.5"/><path class="cls-5" d="M182.07,555.16a1,1,0,0,1,1,1v14a1,1,0,0,1-1,1h-14a1,1,0,0,1-1-1v-14a1,1,0,0,1,1-1h14m0-1h-14a2,2,0,0,0-2,2v14a2,2,0,0,0,2,2h14a2,2,0,0,0,2-2v-14a2,2,0,0,0-2-2h0Z" transform="translate(-98.93 -419.13)"/><polygon class="cls-4" points="82.5 140.5 81.08 139.09 74.01 146.16 71.18 143.33 69.77 144.74 72.59 147.57 72.59 147.57 74.01 148.99 74.01 148.99 74.01 148.99 75.42 147.57 75.42 147.57 82.5 140.5"/><polygon class="cls-7" points="59.9 140.34 58.48 138.92 54.95 142.46 51.41 138.92 50 140.34 53.54 143.87 50 147.41 51.41 148.82 54.95 145.29 58.48 148.82 59.9 147.41 56.36 143.87 59.9 140.34"/><rect class="cls-4" x="114.63" y="42.54" width="17" height="17" rx="1.5" ry="1.5"/><path class="cls-5" d="M229.07,462.16a1,1,0,0,1,1,1v14a1,1,0,0,1-1,1h-14a1,1,0,0,1-1-1v-14a1,1,0,0,1,1-1h14m0-1h-14a2,2,0,0,0-2,2v14a2,2,0,0,0,2,2h14a2,2,0,0,0,2-2v-14a2,2,0,0,0-2-2h0Z" transform="translate(-98.93 -419.13)"/><polygon class="cls-4" points="129.5 47.5 128.08 46.09 121.01 53.16 118.18 50.33 116.77 51.74 119.59 54.57 119.59 54.57 121.01 55.99 121.01 55.99 121.01 55.99 122.42 54.57 122.42 54.57 129.5 47.5"/><polygon class="cls-7" points="106.9 47.34 105.48 45.92 101.95 49.46 98.41 45.92 97 47.34 100.54 50.87 97 54.41 98.41 55.82 101.95 52.29 105.48 55.82 106.9 54.41 103.36 50.87 106.9 47.34"/><rect class="cls-5" x="159.63" y="58.54" width="17" height="17" rx="1.5" ry="1.5"/><path class="cls-5" d="M274.07,478.16a1,1,0,0,1,1,1v14a1,1,0,0,1-1,1h-14a1,1,0,0,1-1-1v-14a1,1,0,0,1,1-1h14m0-1h-14a2,2,0,0,0-2,2v14a2,2,0,0,0,2,2h14a2,2,0,0,0,2-2v-14a2,2,0,0,0-2-2h0Z" transform="translate(-98.93 -419.13)"/><polygon class="cls-3" points="154.73 63.75 153.31 62.34 146.24 69.41 143.41 66.58 142 67.99 144.83 70.82 144.83 70.82 146.24 72.24 146.24 72.24 146.24 72.24 147.66 70.82 147.66 70.82 154.73 63.75"/><polygon class="cls-4" points="174.5 63.5 173.08 62.09 166.01 69.16 163.18 66.33 161.77 67.74 164.59 70.57 164.59 70.57 166.01 71.99 166.01 71.99 166.01 71.99 167.42 70.57 167.42 70.57 174.5 63.5"/><rect class="cls-4" x="112.63" y="162.54" width="17" height="17" rx="1.5" ry="1.5"/><path class="cls-5" d="M227.07,582.16a1,1,0,0,1,1,1v14a1,1,0,0,1-1,1h-14a1,1,0,0,1-1-1v-14a1,1,0,0,1,1-1h14m0-1h-14a2,2,0,0,0-2,2v14a2,2,0,0,0,2,2h14a2,2,0,0,0,2-2v-14a2,2,0,0,0-2-2h0Z" transform="translate(-98.93 -419.13)"/><polygon class="cls-3" points="107.73 167.75 106.31 166.34 99.24 173.41 96.41 170.58 95 171.99 97.83 174.82 97.83 174.82 99.24 176.24 99.24 176.24 99.24 176.24 100.66 174.82 100.66 174.82 107.73 167.75"/><polygon class="cls-4" points="127.5 167.5 126.08 166.09 119.01 173.16 116.18 170.33 114.77 171.74 117.59 174.57 117.59 174.57 119.01 175.99 119.01 175.99 119.01 175.99 120.42 174.57 120.42 174.57 127.5 167.5"/><rect class="cls-5" x="20.63" y="28.54" width="17" height="17" rx="1.5" ry="1.5"/><path class="cls-5" d="M135.07,448.16a1,1,0,0,1,1,1v14a1,1,0,0,1-1,1h-14a1,1,0,0,1-1-1v-14a1,1,0,0,1,1-1h14m0-1h-14a2,2,0,0,0-2,2v14a2,2,0,0,0,2,2h14a2,2,0,0,0,2-2v-14a2,2,0,0,0-2-2h0Z" transform="translate(-98.93 -419.13)"/><polygon class="cls-3" points="15.73 33.75 14.31 32.34 7.24 39.41 4.41 36.58 3 37.99 5.83 40.82 5.83 40.82 7.24 42.24 7.24 42.24 7.24 42.24 8.66 40.82 8.66 40.82 15.73 33.75"/><polygon class="cls-4" points="35.49 33.5 34.08 32.09 27.01 39.16 24.18 36.33 22.77 37.74 25.59 40.57 25.59 40.57 27.01 41.99 27.01 41.99 27.01 41.99 28.42 40.57 28.42 40.57 35.49 33.5"/></g><g id="radio"><circle class="cls-8" cx="95.5" cy="10.01" r="9.51"/><circle class="cls-5" cx="95.5" cy="10.01" r="5.62"/><polygon class="cls-7" points="78.9 6.48 77.48 5.06 73.95 8.6 70.41 5.06 69 6.48 72.54 10.01 69 13.55 70.41 14.96 73.95 11.43 77.48 14.96 78.9 13.55 75.36 10.01 78.9 6.48"/><circle class="cls-8" cx="26.5" cy="147.01" r="9.51"/><circle class="cls-5" cx="26.5" cy="147.01" r="5.62"/><polygon class="cls-3" points="12.73 143.48 11.31 142.06 4.24 149.13 1.41 146.31 0 147.72 2.83 150.55 2.83 150.55 4.24 151.96 4.24 151.96 4.24 151.96 5.66 150.55 5.66 150.55 12.73 143.48"/><circle class="cls-8" cx="44.5" cy="67.01" r="9.51"/><polygon class="cls-3" points="30.73 63.48 29.31 62.06 22.24 69.13 19.41 66.31 18 67.72 20.83 70.55 20.83 70.55 22.24 71.96 22.24 71.96 22.24 71.96 23.66 70.55 23.66 70.55 30.73 63.48"/><circle class="cls-8" cx="166.5" cy="122.01" r="9.51"/><polygon class="cls-7" points="149.9 118.48 148.49 117.06 144.95 120.6 141.41 117.06 140 118.48 143.54 122.01 140 125.55 141.41 126.96 144.95 123.43 148.49 126.96 149.9 125.55 146.36 122.01 149.9 118.48"/></g></svg>